<svg width="731" height="150" viewBox="0 0 731 150" fill="none" xmlns="http://www.w3.org/2000/svg">
<path d="M0.375 2.54545V-0.454552H-2.625V2.54545H0.375ZM49.5227 2.54545L52.2981 1.40657L51.5345 -0.454552H49.5227V2.54545ZM83.3296 84.9318L80.5541 86.0707L81.3178 87.9318H83.3296V84.9318ZM85.0341 84.9318V87.9318H87.0458L87.8095 86.0707L85.0341 84.9318ZM118.841 2.54545V-0.454552H116.829L116.065 1.40657L118.841 2.54545ZM167.989 2.54545H170.989V-0.454552H167.989V2.54545ZM167.989 148V151H170.989V148H167.989ZM129.352 148H126.352V151H129.352V148ZM129.352 63.9091H132.352V60.9091H129.352V63.9091ZM128.216 63.9091V60.9091H126.167L125.421 62.8181L128.216 63.9091ZM95.8296 146.864V149.864H97.8788L98.6241 147.955L95.8296 146.864ZM72.5341 146.864L69.737 147.948L70.4797 149.864H72.5341V146.864ZM40.1477 63.3409L42.9448 62.2563L42.2021 60.3409H40.1477V63.3409ZM39.0114 63.3409V60.3409H36.0114V63.3409H39.0114ZM39.0114 148V151H42.0114V148H39.0114ZM0.375 148H-2.625V151H0.375V148ZM0.375 5.54545H49.5227V-0.454552H0.375V5.54545ZM46.7473 3.68433L80.5541 86.0707L86.105 83.7929L52.2981 1.40657L46.7473 3.68433ZM83.3296 87.9318H85.0341V81.9318H83.3296V87.9318ZM87.8095 86.0707L121.616 3.68433L116.065 1.40657L82.2587 83.7929L87.8095 86.0707ZM118.841 5.54545H167.989V-0.454552H118.841V5.54545ZM164.989 2.54545V148H170.989V2.54545H164.989ZM167.989 145H129.352V151H167.989V145ZM132.352 148V63.9091H126.352V148H132.352ZM129.352 60.9091H128.216V66.9091H129.352V60.9091ZM125.421 62.8181L93.035 145.773L98.6241 147.955L131.01 65.0001L125.421 62.8181ZM95.8296 143.864H72.5341V149.864H95.8296V143.864ZM75.3312 145.779L42.9448 62.2563L37.3506 64.4255L69.737 147.948L75.3312 145.779ZM40.1477 60.3409H39.0114V66.3409H40.1477V60.3409ZM36.0114 63.3409V148H42.0114V63.3409H36.0114ZM39.0114 145H0.375V151H39.0114V145ZM3.375 148V2.54545H-2.625V148H3.375ZM186.703 148H183.703V151H186.703V148ZM186.703 2.54545V-0.454552H183.703V2.54545H186.703ZM291.533 2.54545H294.533V-0.454552H291.533V2.54545ZM291.533 34.3636V37.3636H294.533V34.3636H291.533ZM226.192 34.3636V31.3636H223.192V34.3636H226.192ZM226.192 59.3636H223.192V62.3636H226.192V59.3636ZM286.135 59.3636H289.135V56.3636H286.135V59.3636ZM286.135 91.1818V94.1818H289.135V91.1818H286.135ZM226.192 91.1818V88.1818H223.192V91.1818H226.192ZM226.192 116.182H223.192V119.182H226.192V116.182ZM291.249 116.182H294.249V113.182H291.249V116.182ZM291.249 148V151H294.249V148H291.249ZM189.703 148V2.54545H183.703V148H189.703ZM186.703 5.54545H291.533V-0.454552H186.703V5.54545ZM288.533 2.54545V34.3636H294.533V2.54545H288.533ZM291.533 31.3636H226.192V37.3636H291.533V31.3636ZM223.192 34.3636V59.3636H229.192V34.3636H223.192ZM226.192 62.3636H286.135V56.3636H226.192V62.3636ZM283.135 59.3636V91.1818H289.135V59.3636H283.135ZM286.135 88.1818H226.192V94.1818H286.135V88.1818ZM223.192 91.1818V116.182H229.192V91.1818H223.192ZM226.192 119.182H291.249V113.182H226.192V119.182ZM288.249 116.182V148H294.249V116.182H288.249ZM291.249 145H186.703V151H291.249V145ZM348.901 148V151H351.129L351.773 148.867L348.901 148ZM306.288 148L303.439 147.06L302.138 151H306.288V148ZM354.299 2.54545V-0.454552H352.13L351.45 1.60512L354.299 2.54545ZM408.276 2.54545L411.125 1.60512L410.445 -0.454552H408.276V2.54545ZM456.288 148V151H460.437L459.136 147.06L456.288 148ZM413.674 148L410.802 148.867L411.446 151H413.674V148ZM381.856 42.6023L384.728 41.7353L384.084 39.6023H381.856V42.6023ZM380.719 42.6023V39.6023H378.491L377.847 41.7353L380.719 42.6023ZM340.947 90.6136V87.6136H337.947V90.6136H340.947ZM421.06 90.6136H424.06V87.6136H421.06V90.6136ZM421.06 120.159V123.159H424.06V120.159H421.06ZM340.947 120.159H337.947V123.159H340.947V120.159ZM348.901 145H306.288V151H348.901V145ZM309.136 148.94L357.148 3.48578L351.45 1.60512L303.439 147.06L309.136 148.94ZM354.299 5.54545H408.276V-0.454552H354.299V5.54545ZM405.427 3.48578L453.439 148.94L459.136 147.06L411.125 1.60512L405.427 3.48578ZM456.288 145H413.674V151H456.288V145ZM416.546 147.133L384.728 41.7353L378.984 43.4693L410.802 148.867L416.546 147.133ZM381.856 39.6023H380.719V45.6023H381.856V39.6023ZM377.847 41.7353L346.029 147.133L351.773 148.867L383.591 43.4693L377.847 41.7353ZM340.947 93.6136H421.06V87.6136H340.947V93.6136ZM418.06 90.6136V120.159H424.06V90.6136H418.06ZM421.06 117.159H340.947V123.159H421.06V117.159ZM343.947 120.159V90.6136H337.947V120.159H343.947ZM470.297 148H467.297V151H470.297V148ZM470.297 2.54545V-0.454552H467.297V2.54545H470.297ZM575.126 2.54545H578.126V-0.454552H575.126V2.54545ZM575.126 34.3636V37.3636H578.126V34.3636H575.126ZM509.786 34.3636V31.3636H506.786V34.3636H509.786ZM509.786 59.3636H506.786V62.3636H509.786V59.3636ZM569.729 59.3636H572.729V56.3636H569.729V59.3636ZM569.729 91.1818V94.1818H572.729V91.1818H569.729ZM509.786 91.1818V88.1818H506.786V91.1818H509.786ZM509.786 116.182H506.786V119.182H509.786V116.182ZM574.842 116.182H577.842V113.182H574.842V116.182ZM574.842 148V151H577.842V148H574.842ZM473.297 148V2.54545H467.297V148H473.297ZM470.297 5.54545H575.126V-0.454552H470.297V5.54545ZM572.126 2.54545V34.3636H578.126V2.54545H572.126ZM575.126 31.3636H509.786V37.3636H575.126V31.3636ZM506.786 34.3636V59.3636H512.786V34.3636H506.786ZM509.786 62.3636H569.729V56.3636H509.786V62.3636ZM566.729 59.3636V91.1818H572.729V59.3636H566.729ZM569.729 88.1818H509.786V94.1818H569.729V88.1818ZM506.786 91.1818V116.182H512.786V91.1818H506.786ZM509.786 119.182H574.842V113.182H509.786V119.182ZM571.842 116.182V148H577.842V116.182H571.842ZM574.842 145H470.297V151H574.842V145ZM730.506 57.0909V60.0909H733.768L733.496 56.8405L730.506 57.0909ZM690.45 57.0909L687.461 57.3471L687.696 60.0909H690.45V57.0909ZM688.177 48.071L685.43 49.276L685.438 49.2961L685.447 49.316L688.177 48.071ZM683.205 41.1108L681.134 43.2809L681.159 43.3049L681.185 43.3284L683.205 41.1108ZM675.606 36.5653L674.577 39.3834L674.597 39.3906L674.617 39.3976L675.606 36.5653ZM648.617 39.7614L646.895 37.3049L646.889 37.3091L646.883 37.3133L648.617 39.7614ZM638.248 53.6108L635.456 52.5118L635.453 52.5213L635.449 52.5309L638.248 53.6108ZM638.319 97.6449L635.527 98.7439L635.533 98.7572L635.538 98.7705L638.319 97.6449ZM648.759 111.139L647.095 113.635L647.104 113.641L647.113 113.647L648.759 111.139ZM674.967 114.264L675.859 117.128L675.88 117.122L675.901 117.115L674.967 114.264ZM682.495 110.216L684.4 112.533L682.495 110.216ZM687.68 103.895L685.048 102.455L685.043 102.464L685.038 102.473L687.68 103.895ZM690.45 95.4432L690.471 92.4433L687.873 92.4248L687.483 94.9938L690.45 95.4432ZM730.506 95.7273L733.498 95.9574L733.744 92.7502L730.528 92.7273L730.506 95.7273ZM725.322 114.548L728.037 115.825L728.04 115.817L725.322 114.548ZM712.609 132.162L714.711 134.302L714.711 134.302L712.609 132.162ZM692.367 145.088L691.239 142.308L692.367 145.088ZM628.376 141.395L626.945 144.032L626.95 144.034L628.376 141.395ZM603.305 116.111L600.675 117.554L600.68 117.563L603.305 116.111ZM603.518 34.3636L606.131 35.8376L606.133 35.8328L603.518 34.3636ZM628.802 9.15056L630.219 11.795L630.228 11.7901L628.802 9.15056ZM689.668 4.32101L690.596 1.46804L689.668 4.32101ZM709.981 15.3295L708.066 17.6388L708.071 17.6434L708.077 17.648L709.981 15.3295ZM724.043 33.0142L721.367 34.3703L724.043 33.0142ZM730.506 54.0909H690.45V60.0909H730.506V54.0909ZM693.439 56.8347C693.129 53.2195 692.296 49.8727 690.906 46.826L685.447 49.316C686.52 51.6671 687.202 54.3336 687.461 57.3471L693.439 56.8347ZM690.924 46.866C689.576 43.7913 687.674 41.1239 685.226 38.8932L681.185 43.3284C682.998 44.9803 684.411 46.953 685.43 49.276L690.924 46.866ZM685.277 38.9407C682.855 36.6291 679.942 34.9019 676.595 33.7331L674.617 39.3976C677.235 40.3121 679.389 41.6152 681.134 43.2809L685.277 38.9407ZM676.635 33.7473C673.265 32.5172 669.522 31.9318 665.45 31.9318V37.9318C668.952 37.9318 671.98 38.4355 674.577 39.3834L676.635 33.7473ZM665.45 31.9318C658.319 31.9318 652.079 33.6708 646.895 37.3049L650.339 42.2179C654.341 39.4126 659.322 37.9318 665.45 37.9318V31.9318ZM646.883 37.3133C641.789 40.9216 638.003 46.0446 635.456 52.5118L641.039 54.7098C643.228 49.1505 646.354 45.0405 650.351 42.2094L646.883 37.3133ZM635.449 52.5309C632.962 58.9766 631.768 66.5831 631.768 75.2727H637.768C637.768 67.1063 638.894 60.2715 641.047 54.6907L635.449 52.5309ZM631.768 75.2727C631.768 84.4181 632.981 92.2756 635.527 98.7439L641.11 96.5459C638.922 90.9877 637.768 83.9304 637.768 75.2727H631.768ZM635.538 98.7705C638.138 105.193 641.964 110.215 647.095 113.635L650.423 108.643C646.464 106.003 643.33 102.028 641.1 96.5193L635.538 98.7705ZM647.113 113.647C652.229 117.004 658.293 118.614 665.165 118.614V112.614C659.254 112.614 654.381 111.24 650.405 108.631L647.113 113.647ZM665.165 118.614C669.054 118.614 672.63 118.134 675.859 117.128L674.074 111.4C671.527 112.193 668.569 112.614 665.165 112.614V118.614ZM675.901 117.115C679.107 116.064 681.954 114.545 684.4 112.533L680.59 107.899C678.775 109.391 676.602 110.571 674.032 111.414L675.901 117.115ZM684.4 112.533C686.836 110.53 688.813 108.118 690.321 105.317L685.038 102.473C683.895 104.596 682.415 106.398 680.59 107.899L684.4 112.533ZM690.311 105.335C691.87 102.487 692.895 99.3285 693.416 95.8926L687.483 94.9938C687.057 97.8078 686.236 100.284 685.048 102.455L690.311 105.335ZM690.428 98.4431L730.485 98.7272L730.528 92.7273L690.471 92.4433L690.428 98.4431ZM727.515 95.4972C727.073 101.245 725.455 107.168 722.603 113.28L728.04 115.817C731.154 109.144 732.993 102.52 733.498 95.9574L727.515 95.4972ZM722.607 113.272C719.789 119.265 715.77 124.849 710.506 130.022L714.711 134.302C720.433 128.679 724.888 122.521 728.037 115.825L722.607 113.272ZM710.506 130.022C705.377 135.062 698.974 139.169 691.239 142.308L693.495 147.868C701.858 144.473 708.95 139.962 714.711 134.302L710.506 130.022ZM691.239 142.308C683.619 145.401 674.665 146.989 664.313 146.989V152.989C675.268 152.989 685.017 151.309 693.495 147.868L691.239 142.308ZM664.313 146.989C651.404 146.989 639.924 144.223 629.802 138.755L626.95 144.034C638.04 150.025 650.518 152.989 664.313 152.989V146.989ZM629.806 138.758C619.781 133.318 611.825 125.316 605.93 114.659L600.68 117.563C607.095 129.16 615.853 138.013 626.945 144.032L629.806 138.758ZM605.935 114.667C600.126 104.086 597.143 90.9991 597.143 75.2727H591.143C591.143 91.7433 594.267 105.882 600.675 117.554L605.935 114.667ZM597.143 75.2727C597.143 59.4578 600.195 46.3606 606.131 35.8376L600.905 32.8897C594.341 44.5258 591.143 58.7013 591.143 75.2727H597.143ZM606.133 35.8328C612.121 25.1722 620.147 17.1905 630.219 11.795L627.385 6.50612C616.245 12.4742 607.414 21.3013 600.902 32.8944L606.133 35.8328ZM630.228 11.7901C640.359 6.31711 651.7 3.55681 664.313 3.55681V-2.44319C650.79 -2.44319 638.456 0.525681 627.376 6.51104L630.228 11.7901ZM664.313 3.55681C673.225 3.55681 681.359 4.77383 688.741 7.17399L690.596 1.46804C682.542 -1.15073 673.773 -2.44319 664.313 -2.44319V3.55681ZM688.741 7.17398C696.124 9.57483 702.554 13.0684 708.066 17.6388L711.896 13.0203C705.76 7.93161 698.648 4.08615 690.596 1.46804L688.741 7.17398ZM708.077 17.648C713.566 22.1552 717.996 27.7175 721.367 34.3703L726.719 31.6581C722.988 24.2958 718.043 18.0683 711.885 13.011L708.077 17.648ZM721.367 34.3703C724.719 40.9837 726.787 48.624 727.517 57.3413L733.496 56.8405C732.711 47.4707 730.47 39.0598 726.719 31.6581L721.367 34.3703Z" fill="white"/>
</svg>
