<?xml version="1.0" standalone="no"?>
<!DOCTYPE svg PUBLIC "-//W3C//DTD SVG 20010904//EN"
 "http://www.w3.org/TR/2001/REC-SVG-20010904/DTD/svg10.dtd">
<svg version="1.0" xmlns="http://www.w3.org/2000/svg"
 width="1080.000000pt" height="1080.000000pt" viewBox="0 0 1080.000000 1080.000000"
 preserveAspectRatio="xMidYMid meet">
<metadata>
Created by potrace 1.14, written by Peter Selinger 2001-2017
</metadata>
<g transform="translate(0.000000,1080.000000) scale(0.100000,-0.100000)"
fill="#000000" stroke="none">
<path d="M5335 10162 c-17 -9 -74 -41 -128 -71 -53 -30 -97 -58 -97 -63 0 -4
-5 -8 -11 -8 -12 0 -69 -41 -114 -82 -16 -16 -33 -28 -38 -28 -4 0 -62 -54
-128 -120 -67 -66 -118 -120 -115 -120 4 0 -3 -10 -15 -22 -12 -13 -45 -55
-75 -94 -42 -55 -65 -76 -106 -95 -29 -13 -55 -26 -58 -29 -3 -4 -25 -16 -50
-29 -25 -13 -47 -26 -50 -30 -3 -3 -21 -15 -40 -25 -19 -10 -68 -41 -108 -68
-41 -26 -76 -48 -79 -48 -2 0 -10 -6 -17 -12 -8 -7 -23 -20 -36 -28 -72 -50
-127 -94 -254 -206 -72 -64 -196 -190 -196 -199 0 -2 -12 -17 -26 -32 -15 -15
-45 -55 -67 -88 -22 -33 -43 -62 -46 -65 -9 -8 -37 -59 -62 -112 -12 -27 -26
-48 -31 -48 -5 0 -7 -3 -5 -8 3 -4 -2 -23 -12 -42 -9 -19 -25 -62 -35 -95 -10
-33 -21 -67 -24 -75 -8 -24 -13 -43 -17 -65 -2 -11 -4 -20 -5 -20 -9 0 -24
-175 -23 -270 1 -89 8 -200 13 -200 1 0 3 -9 4 -20 2 -11 6 -42 11 -70 4 -27
9 -59 10 -70 5 -28 44 -154 59 -190 7 -16 22 -54 32 -82 10 -29 22 -53 27 -53
4 0 6 -4 3 -8 -5 -9 49 -132 62 -142 4 -3 8 -11 10 -19 2 -8 23 -45 48 -83 24
-38 44 -73 44 -78 0 -6 4 -10 9 -10 5 0 18 -15 30 -32 11 -18 26 -42 33 -53 7
-11 15 -22 18 -25 3 -3 50 -59 105 -125 55 -66 115 -136 135 -156 19 -20 42
-45 50 -55 14 -16 57 -57 251 -235 15 -14 51 -43 78 -65 28 -21 51 -42 51 -47
0 -4 4 -6 8 -3 5 3 15 -4 22 -15 8 -10 19 -19 25 -19 6 0 17 -9 25 -20 8 -11
20 -20 27 -20 7 0 13 -3 13 -8 0 -4 18 -18 40 -32 22 -14 40 -27 40 -30 0 -3
18 -16 40 -30 22 -14 40 -28 40 -32 0 -5 6 -8 14 -8 8 0 16 -4 18 -8 2 -5 91
-67 199 -138 240 -158 231 -153 249 -161 8 -4 20 -11 25 -16 6 -5 141 -99 300
-209 160 -110 333 -230 385 -266 52 -36 109 -75 125 -86 226 -155 702 -556
864 -729 96 -103 226 -295 284 -421 l28 -61 -7 45 c-3 25 -8 54 -10 65 -2 11
-6 32 -9 47 -3 14 -29 96 -58 181 -81 235 -292 617 -419 757 -13 14 -55 63
-95 110 -136 161 -423 442 -613 600 -119 99 -551 522 -663 649 -56 64 -104
118 -107 121 -3 3 -30 34 -60 70 -30 36 -57 67 -60 70 -3 3 -59 73 -126 155
-131 163 -206 269 -248 354 -15 30 -54 93 -86 140 -106 156 -191 352 -215 496
-2 11 -4 20 -5 20 -3 0 -13 81 -14 117 0 21 -5 38 -9 38 -4 0 -4 8 2 17 5 9 5
26 1 38 -5 12 -3 32 5 50 9 19 14 24 14 13 1 -10 6 -18 13 -18 6 0 9 -3 5 -6
-6 -6 68 -163 82 -174 3 -3 12 -17 20 -32 8 -15 22 -37 33 -47 10 -11 18 -24
18 -29 0 -13 163 -192 175 -192 3 0 13 -8 23 -17 40 -38 71 -61 91 -68 12 -3
21 -11 21 -16 0 -6 5 -7 10 -4 6 3 10 2 10 -4 0 -5 10 -13 23 -17 12 -3 29
-12 37 -19 14 -12 197 -84 230 -90 8 -2 35 -8 59 -15 24 -6 49 -9 57 -6 7 3
16 1 20 -5 3 -6 12 -8 20 -5 7 3 16 1 18 -3 3 -5 26 -8 51 -7 25 1 45 -3 45
-8 0 -4 7 -3 15 4 8 7 15 8 15 3 0 -6 39 -9 93 -9 74 1 100 -2 132 -19 22 -11
42 -23 43 -27 2 -5 10 -8 18 -8 8 0 14 -4 14 -9 0 -5 8 -11 18 -14 20 -7 71
-37 89 -54 7 -6 29 -21 50 -34 21 -13 43 -27 48 -32 6 -4 42 -30 80 -58 39
-27 78 -56 88 -64 9 -8 17 -11 17 -7 1 4 9 -2 18 -14 10 -12 35 -29 55 -39 20
-9 37 -21 37 -26 0 -5 7 -9 15 -9 8 0 15 -3 15 -8 0 -4 15 -13 33 -21 17 -8
40 -21 50 -29 9 -8 17 -11 17 -6 0 5 5 2 10 -6 5 -8 13 -15 17 -16 4 0 26 -8
48 -18 63 -28 142 -54 188 -63 54 -9 248 -6 307 5 60 11 181 52 200 67 8 7 34
20 58 31 23 10 42 21 42 26 0 4 5 8 11 8 7 0 22 11 35 26 13 14 24 22 24 17 0
-4 32 25 70 65 39 39 70 76 70 82 0 5 3 10 8 10 6 0 44 56 47 70 0 3 9 21 20
40 27 50 26 178 -3 242 -21 47 -107 138 -283 298 -45 41 -99 91 -119 110 -60
56 -251 234 -305 284 -27 25 -53 46 -57 46 -4 0 -10 9 -13 20 -3 11 -11 20
-17 20 -8 0 -123 105 -181 166 -11 11 -21 33 -22 50 -2 16 -5 47 -9 69 -8 60
-18 136 -22 175 -12 135 -34 190 -98 254 -25 24 -74 59 -108 76 -58 30 -129
68 -203 110 -16 10 -46 26 -65 36 -19 11 -38 24 -42 29 -4 6 -8 6 -8 2 0 -4
-6 -3 -12 3 -18 15 -78 52 -110 69 -16 8 -28 18 -28 23 0 4 -9 8 -19 8 -10 0
-21 7 -25 15 -3 8 -12 15 -21 15 -8 0 -15 5 -15 10 0 6 -7 10 -15 10 -9 0 -18
7 -21 15 -4 8 -9 13 -14 10 -4 -2 -16 5 -28 15 -12 11 -26 20 -32 20 -5 0 -10
5 -10 10 0 6 -7 10 -15 10 -8 0 -15 4 -15 8 0 5 -12 15 -27 23 -16 8 -42 28
-58 44 -17 17 -35 31 -40 32 -12 3 -48 32 -155 122 -29 25 -58 51 -65 57 -7 7
-15 10 -19 7 -3 -4 -6 1 -6 10 0 8 -5 17 -10 19 -20 6 -13 183 10 283 7 28 13
55 14 60 10 42 32 101 39 106 5 3 8 9 7 13 -4 15 31 86 42 86 6 0 9 3 5 6 -3
3 4 23 17 43 20 32 39 72 33 70 -1 0 -16 -8 -32 -17z m370 -1727 c11 -2 21 -4
23 -5 1 -2 5 -3 10 -4 4 -1 22 -6 40 -10 17 -4 32 -12 32 -17 0 -6 3 -8 8 -5
13 8 115 -62 159 -111 23 -25 51 -63 62 -83 l20 -38 -42 3 c-23 1 -51 5 -62 8
-11 3 -33 8 -48 11 -36 6 -87 29 -87 38 0 5 -6 8 -13 8 -15 0 -40 19 -95 72
-29 28 -92 125 -92 142 0 4 15 4 33 1 17 -3 41 -8 52 -10z"/>
<path d="M3175 8457 c-4 -13 -7 -30 -9 -38 -1 -8 -5 -23 -9 -34 -3 -11 -9 -33
-12 -50 -8 -38 -13 -60 -15 -60 -3 0 -9 -30 -34 -160 -32 -164 -41 -231 -51
-365 -3 -41 -7 -87 -9 -102 -2 -16 1 -28 6 -28 5 0 5 -7 0 -17 -12 -26 3 -378
19 -423 1 -3 2 -9 3 -15 1 -5 6 -35 11 -65 5 -30 9 -57 10 -60 1 -3 6 -23 13
-45 6 -22 13 -51 16 -65 5 -30 27 -96 69 -210 35 -95 154 -337 177 -360 12
-12 70 -112 70 -121 0 -5 7 -9 16 -9 8 0 13 -4 10 -8 -2 -4 9 -23 25 -41 16
-19 29 -36 29 -40 0 -3 13 -20 28 -38 15 -17 47 -55 71 -85 71 -84 402 -408
417 -408 3 0 11 -6 18 -12 38 -37 77 -68 85 -68 5 0 11 -4 13 -9 2 -5 55 -49
118 -96 63 -47 122 -92 131 -98 8 -7 23 -16 31 -22 9 -5 75 -50 147 -100 137
-94 184 -124 329 -214 48 -30 89 -57 92 -60 7 -8 42 -30 60 -38 8 -3 34 -19
57 -35 23 -15 46 -28 52 -28 6 0 11 -4 11 -9 0 -5 8 -11 18 -15 9 -3 29 -14
44 -23 22 -15 167 -106 233 -146 11 -7 22 -14 25 -17 3 -3 19 -12 35 -20 17
-8 32 -17 35 -21 8 -8 93 -63 122 -78 15 -8 37 -22 47 -33 11 -10 22 -18 25
-18 3 0 38 -21 77 -47 39 -27 80 -53 90 -59 10 -6 28 -19 39 -29 11 -10 20
-15 20 -12 0 4 11 -3 24 -14 13 -12 27 -21 30 -20 3 1 15 -7 25 -16 24 -22 32
-28 96 -72 28 -19 52 -38 55 -41 3 -3 33 -26 68 -49 34 -24 62 -47 62 -50 0
-4 13 -15 30 -24 16 -10 35 -23 42 -30 8 -7 43 -37 78 -67 119 -100 254 -230
391 -376 68 -73 167 -206 240 -324 73 -117 159 -286 163 -322 1 -3 4 -9 7 -13
4 -3 5 10 3 31 -12 125 -59 287 -129 440 -34 74 -122 229 -142 249 -8 8 -11
15 -6 15 4 0 4 4 -2 8 -5 4 -27 32 -47 62 -21 31 -45 64 -55 75 -10 11 -36 42
-58 69 -22 27 -51 61 -65 76 -112 118 -179 185 -265 265 -146 135 -136 126
-270 235 -44 35 -85 69 -91 75 -26 23 -136 101 -239 168 -60 39 -112 74 -115
77 -3 3 -21 17 -40 30 -19 13 -41 30 -48 37 -7 7 -17 13 -22 13 -5 0 -15 6
-22 13 -7 7 -57 41 -110 77 -54 35 -98 68 -98 72 0 4 -4 8 -9 8 -13 0 -205
129 -209 141 -2 5 -8 9 -13 9 -9 0 -348 235 -397 275 -9 7 -76 58 -148 112
-143 107 -204 156 -240 191 -13 12 -26 22 -29 22 -8 0 -155 130 -197 174 -16
15 -28 26 -28 23 0 -3 -52 47 -115 110 -63 64 -115 120 -115 125 0 5 -4 6 -10
3 -5 -3 -10 -2 -10 3 0 5 -21 33 -47 62 -27 29 -57 64 -68 76 -11 12 -29 35
-40 50 -11 15 -25 32 -30 38 -6 6 -26 34 -45 61 -19 28 -38 52 -41 55 -32 26
-257 414 -251 433 1 4 -3 7 -8 7 -6 0 -10 9 -10 19 0 11 -4 22 -9 25 -5 4 -16
25 -24 49 -9 23 -28 74 -42 112 -26 69 -42 115 -50 145 -2 8 -11 40 -20 70
-18 65 -26 97 -29 125 -1 12 -5 25 -8 30 -3 6 -9 32 -12 58 -4 27 -10 59 -12
70 -2 12 -7 42 -9 67 -3 25 -8 63 -12 85 -9 53 -10 510 -1 603 7 71 4 93 -7
49z"/>
<path d="M2875 7439 c-31 -133 -36 -615 -9 -767 3 -15 7 -43 9 -62 3 -34 10
-72 20 -116 3 -12 7 -39 11 -60 3 -21 10 -47 15 -56 5 -9 9 -21 8 -25 -1 -4 0
-11 1 -15 1 -5 3 -11 4 -15 2 -5 8 -28 16 -53 7 -25 15 -49 16 -55 10 -36 77
-204 90 -222 8 -13 12 -23 9 -23 -13 0 160 -302 176 -308 5 -2 9 -8 9 -14 0
-6 14 -27 30 -48 17 -21 30 -43 30 -49 0 -6 4 -11 9 -11 4 0 20 -17 34 -37 27
-40 41 -56 135 -162 162 -183 389 -384 632 -561 41 -30 77 -58 78 -62 2 -5 10
-8 18 -8 8 0 14 -4 14 -10 0 -5 5 -10 10 -10 6 0 16 -5 23 -10 33 -29 227
-158 227 -152 0 4 5 -1 11 -10 5 -10 15 -18 21 -18 6 0 31 -15 57 -33 25 -17
58 -38 74 -46 15 -8 27 -18 27 -23 0 -4 6 -8 13 -8 10 0 83 -44 112 -68 6 -4
17 -11 25 -15 8 -4 35 -21 60 -37 25 -17 53 -33 63 -36 9 -4 17 -10 17 -15 0
-5 5 -9 11 -9 6 0 30 -13 54 -30 24 -16 46 -30 50 -30 3 0 11 -5 18 -10 24
-21 198 -130 208 -130 5 0 9 -4 9 -9 0 -5 9 -13 20 -16 11 -3 26 -12 32 -18 7
-7 54 -39 103 -72 50 -33 118 -81 153 -107 35 -27 65 -48 67 -48 5 0 46 -34
71 -57 7 -7 16 -13 21 -13 5 0 15 -9 23 -20 8 -11 18 -20 23 -20 4 0 18 -10
31 -22 13 -13 52 -48 86 -78 35 -30 93 -86 129 -124 36 -37 73 -76 82 -85 31
-32 129 -160 129 -169 0 -4 8 -17 18 -28 22 -23 79 -118 120 -199 33 -65 95
-225 86 -225 -2 0 0 -9 6 -20 6 -11 13 -39 16 -62 8 -63 12 -258 5 -258 -3 0
-6 -10 -7 -22 -2 -54 -40 -171 -76 -236 -48 -86 -61 -107 -67 -112 -3 -3 -18
-21 -32 -40 -31 -42 -136 -149 -199 -203 -52 -45 -287 -203 -345 -232 -22 -11
-41 -23 -43 -27 -2 -5 -10 -8 -18 -8 -7 0 -28 -9 -46 -21 -18 -11 -24 -18 -13
-15 11 3 43 8 70 12 27 3 52 7 55 9 3 2 23 6 46 9 31 5 159 38 229 59 6 2 30
10 55 17 25 8 48 18 51 23 3 5 8 7 10 6 2 -1 20 3 39 11 19 7 38 12 43 11 4 0
7 4 7 9 0 5 3 9 8 8 9 -3 105 43 113 55 3 5 9 8 13 7 11 -3 168 97 205 130 18
17 35 30 39 30 11 0 172 173 172 186 0 7 4 14 8 16 9 4 72 96 72 106 0 4 9 24
20 45 11 20 17 37 14 37 -4 0 -2 6 4 13 35 44 60 292 40 396 -5 25 -11 57 -14
71 -8 40 -32 117 -47 152 -8 18 -23 51 -32 73 -27 60 -105 196 -126 218 -10
12 -19 24 -19 28 0 4 -6 14 -13 21 -10 11 -40 49 -89 113 -92 120 -373 389
-528 505 -18 14 -47 37 -64 52 -17 15 -34 28 -37 28 -3 0 -15 8 -27 18 -52 44
-63 52 -67 52 -3 0 -28 17 -55 38 -93 70 -139 102 -150 102 -5 0 -10 5 -10 10
0 6 -7 10 -15 10 -8 0 -15 4 -15 9 0 5 -18 18 -41 30 -22 12 -46 26 -52 32
-14 12 -104 70 -237 154 -52 33 -96 63 -98 67 -2 4 -7 8 -12 8 -11 0 -204 122
-208 132 -2 4 -8 8 -12 8 -11 0 -124 66 -142 83 -7 6 -26 19 -43 27 -16 8 -36
21 -43 28 -8 7 -28 20 -45 28 -16 9 -35 20 -41 25 -6 6 -36 25 -66 44 -30 19
-60 38 -65 42 -6 4 -53 37 -105 72 -52 36 -120 83 -152 105 -31 23 -66 48 -79
56 -12 8 -31 23 -41 33 -10 9 -22 17 -27 17 -4 0 -19 10 -32 23 -13 13 -42 36
-64 53 -22 16 -42 31 -45 34 -3 3 -30 25 -60 50 -30 25 -73 61 -95 82 -22 20
-51 46 -65 58 -82 70 -330 328 -339 352 -1 5 -13 19 -25 32 -32 34 -76 90 -76
98 0 8 -22 36 -47 63 -7 8 -13 18 -13 23 0 6 -3 12 -7 14 -9 3 -62 87 -105
163 -30 54 -128 252 -128 258 0 3 -8 22 -17 43 -9 22 -18 45 -20 52 -8 32 -10
39 -21 62 -11 26 -41 121 -49 155 -8 38 -11 50 -13 50 -1 0 -3 9 -5 20 -2 11
-9 43 -15 70 -6 28 -13 64 -15 80 -3 17 -7 41 -10 55 -13 68 -17 99 -20 150
-2 30 -4 55 -5 55 -1 0 -3 52 -6 115 -5 118 -9 140 -19 99z"/>
<path d="M2866 5990 c4 -19 8 -51 9 -70 1 -19 4 -35 5 -35 1 0 3 -11 5 -25 2
-14 6 -36 9 -50 4 -14 9 -38 11 -55 3 -16 9 -41 14 -55 5 -14 13 -38 17 -55 4
-16 8 -34 10 -40 6 -22 44 -122 60 -160 10 -22 18 -42 19 -45 3 -11 49 -105
54 -110 3 -3 19 -30 35 -60 27 -52 114 -189 126 -200 3 -3 23 -30 45 -60 22
-30 44 -60 50 -66 5 -6 37 -42 70 -80 99 -112 235 -244 376 -364 35 -30 66
-58 67 -62 2 -5 8 -8 13 -8 5 0 19 -9 31 -19 49 -42 67 -57 88 -71 13 -8 37
-27 54 -42 17 -16 34 -28 38 -28 5 0 16 -8 26 -17 10 -10 41 -34 70 -53 29
-19 52 -38 52 -42 0 -5 5 -8 11 -8 6 0 28 -13 49 -30 21 -16 42 -30 48 -30 6
0 12 -4 14 -8 2 -5 35 -30 73 -57 39 -26 84 -59 101 -72 17 -12 36 -23 42 -23
7 0 12 -4 12 -8 0 -10 77 -62 91 -62 5 0 9 -4 9 -8 0 -5 33 -30 73 -57 39 -27
86 -59 102 -72 17 -13 35 -27 40 -31 61 -45 143 -110 153 -120 8 -7 30 -25 50
-40 41 -32 59 -47 178 -163 92 -89 95 -93 154 -169 19 -25 37 -47 41 -50 9 -7
102 -170 118 -205 48 -111 75 -232 74 -345 0 -67 -3 -91 -19 -173 -17 -92 -83
-208 -159 -282 -50 -48 -133 -99 -180 -111 -16 -4 -34 -10 -40 -14 -12 -9 -27
-10 -125 -10 -80 0 -110 2 -150 14 -46 14 -120 49 -120 58 0 4 -5 8 -11 8 -20
0 -149 143 -145 160 0 3 -9 20 -22 38 -13 17 -20 32 -16 32 3 0 2 6 -3 13 -23
30 -38 108 -37 192 1 128 8 160 59 257 35 67 85 123 175 197 24 19 24 20 3 14
-13 -3 -23 -10 -23 -16 0 -6 -3 -7 -6 -4 -4 3 -16 1 -28 -5 -11 -7 -24 -11
-28 -10 -5 1 -8 -3 -8 -8 0 -6 -5 -10 -10 -10 -24 0 -129 -77 -190 -139 -62
-63 -133 -181 -146 -243 -23 -116 -24 -188 -1 -298 17 -81 89 -230 134 -278 7
-7 13 -17 13 -21 0 -15 140 -145 192 -179 63 -40 151 -82 186 -88 14 -3 29 -7
34 -10 16 -10 226 -33 233 -26 4 4 38 9 112 14 18 2 33 6 33 9 0 3 6 6 13 7
12 1 47 9 57 12 3 1 8 2 13 1 4 0 7 4 7 9 0 5 3 9 8 8 9 -2 42 10 62 23 8 5
23 12 33 15 9 4 17 11 17 17 0 6 3 7 6 4 10 -9 124 82 173 138 14 16 36 40 49
52 12 13 22 26 22 29 0 3 14 25 30 49 17 24 30 48 30 54 0 6 4 11 9 11 5 0 11
10 15 23 3 13 13 41 23 63 9 21 18 42 19 47 1 4 2 8 4 10 1 1 3 9 5 17 2 8 7
26 10 40 4 14 7 35 8 48 1 12 3 22 7 22 12 0 16 238 5 300 -4 25 -9 52 -10 60
-1 8 -10 42 -20 75 -10 33 -19 65 -20 70 -5 22 -69 161 -82 176 -7 8 -13 19
-13 23 0 4 -9 21 -21 37 -11 16 -18 29 -14 29 3 0 -3 10 -15 22 -11 12 -20 25
-20 28 0 4 -9 18 -20 31 -11 13 -23 29 -27 34 -92 118 -126 157 -214 244 -66
65 -160 151 -165 151 -1 0 -18 15 -38 33 -19 17 -41 37 -48 42 -7 6 -33 26
-58 45 -25 19 -47 37 -50 40 -3 3 -32 25 -65 50 -33 25 -62 47 -65 50 -3 3
-27 21 -55 39 -27 19 -53 40 -57 45 -4 6 -8 7 -8 3 0 -4 -12 4 -27 18 -15 14
-31 25 -35 25 -3 0 -13 6 -20 13 -18 16 -107 77 -114 77 -5 0 -19 11 -49 38
-7 6 -18 12 -23 12 -6 0 -12 3 -14 8 -5 10 -97 72 -108 72 -6 0 -10 3 -10 8 0
4 -18 18 -40 32 -22 13 -40 28 -40 32 0 4 -6 8 -14 8 -7 0 -19 7 -26 15 -7 8
-16 12 -21 9 -5 -3 -9 -1 -9 3 0 8 -82 67 -121 88 -11 5 -19 13 -19 17 0 5 -7
8 -15 8 -8 0 -15 4 -15 8 0 4 -15 16 -32 27 -18 10 -37 24 -41 32 -4 7 -12 13
-18 13 -8 0 -140 94 -194 137 -5 5 -30 24 -55 43 -25 18 -52 40 -60 47 -8 7
-60 50 -114 95 -54 46 -121 104 -148 131 -27 26 -54 47 -60 47 -6 0 -9 2 -7 5
3 2 -29 40 -70 83 -102 105 -153 162 -146 162 3 0 -8 15 -24 33 -46 50 -90
114 -84 121 4 3 1 6 -6 6 -6 0 -16 11 -21 25 -5 14 -14 25 -20 25 -6 0 -9 4
-5 9 3 5 -2 16 -10 24 -8 9 -15 20 -15 26 0 6 -4 11 -10 11 -5 0 -10 6 -10 13
0 6 -18 47 -40 90 -22 43 -40 82 -40 86 0 5 -8 26 -17 47 -9 22 -17 41 -18 44
-1 3 -6 23 -13 45 -6 22 -13 51 -16 65 -2 14 -9 36 -15 50 -10 22 -10 21 -5
-10z"/>
</g>
</svg>
